<?xml version="1.0" encoding="UTF-8"?>
<svg id="appletotal" xmlns="http://www.w3.org/2000/svg" version="1.1" viewBox="0 0 1024 768">
  <!-- Generator: Adobe Illustrator 29.2.1, SVG Export Plug-In . SVG Version: 2.1.0 Build 116)  -->
  <defs>
    <style>
      .apple-st0 {
        fill: #f51400;
      }

      .apple-st1 {
        fill: #24ba00;
      }

      .apple-st2 {
        fill: #7a3700;
      }
    </style>
  </defs>
  <path id="applestem" class="apple-st2" d="M524.6,317.7s.8-43.5-17.9-91.6c0,0-3.1-4.7-3.1-16.3s-31.8,3.9-41.9,7,14.8,24.1,14.8,24.1l31.8,92.4"/>
  <path id="apple" class="apple-st0" d="M516.1,319.8c-3.7,0-7.7-.1-11.9-.6-12.4-1.5-21.2-5.3-27.1-7.8-11.9-5-25.5-10.5-42.4-17.1-12-2.4-38.5-6-67,5.8,0,0-28.2,11.6-49.9,41.2-54.2,74-35,226.4,50.3,307.8,0,0,42.4,55.9,140.6,22.6,17.2,7.2,45.6,16,78.4,10.7,94.4-15.3,132.4-131.7,137.7-148,7.7-23.6,39.2-122.4-19.1-193.4-19.4-23.7-47.1-40.9-82.6-50.3,0,0-48.8-2.8-107.1,29.2Z"/>
  <path id="appleleave" class="apple-st1" d="M521.5,313.6s-3.9-117.3,132.8-93.2c0,0-20.2,29.9-21.7,47.2s-21,74.7-111,46Z"/>
</svg>