<?xml version="1.0" encoding="UTF-8"?>
<svg id="bananatotal" xmlns="http://www.w3.org/2000/svg" version="1.1" viewBox="0 0 1024 768">
  <!-- Generator: Adobe Illustrator 29.2.1, SVG Export Plug-In . SVG Version: 2.1.0 Build 116)  -->
  <defs>
    <style>
      .banana-st0 {
        fill: #ffcf54;
      }

      .banana-st1 {
        fill: #fc3;
      }

      .banana-st2 {
        fill: #482600;
      }
    </style>
  </defs>
  <path id="banana02" class="banana-st1" d="M353.3,367.3c-5.4-8.4-12.3-21.6-15.1-38.9-1.1-6.9-1.4-13.1-1.2-18.6l24-6.4s15.1,48.9,81.2,72.5,132.8,5.4,132.8,5.4c0,0,47.9-15.2,71.5-35.6,0,0-24.3,57.7-119.6,72.6-19.4,3-70.7,10.5-125.1-16.5-22.5-11.2-38.5-24.8-48.4-34.4Z"/>
  <path id="banana01" class="banana-st0" d="M668.7,296.5l14.8,12.2s-16.3,36.1-14.8,50.4,25,35.1-24.4,82.2-178.7,73.4-248.4,24.5c-69.7-48.9-67.4-100.7-67.4-100.7l23.1-10.2s65.1,98.8,210.5,45.7c0,0,52.3-15.4,83.2-68.9.8-1.3,1.5-2.7,2.3-4.1l21.2-31.3Z"/>
  <path id="bananastem" class="banana-st2" d="M684.1,312.4c-2.8-1.4-6.3-3.5-9.8-6.7-4.3-3.8-7.1-7.7-8.9-10.7,3.1-4.8,6.2-9.6,9.4-14.4,2.7,1.1,6.7,3.1,10.7,6.9,3.5,3.3,5.6,6.6,6.9,9"/>
</svg>