<?xml version="1.0" encoding="UTF-8"?>
<svg id="mangototal" xmlns="http://www.w3.org/2000/svg" version="1.1" viewBox="0 0 1024 768">
  <!-- Generator: Adobe Illustrator 29.2.1, SVG Export Plug-In . SVG Version: 2.1.0 Build 116)  -->
 <defs>
  <style>
    .mango-st0 { fill: #8B4513; }  
    .mango-st1 { fill: #FFD700; }  
    .mango-st2 { fill: #228B22; } 
  </style>
</defs>
<path id="mangoleave" class="mango-st2" d="M538.5,305.7s25.2,38,93.3,13.6c0,0-55.6-65.2-93.3-13.6Z"/>
<path id="mangostem" class="mango-st0" d="M528.8,300.2s6-18.8,13.8-18,2.2,13.6-3.6,23.2"/>
<path id="mango" class="mango-st1" d="M535.6,302.3c-6.6-3.8-19.4-9.9-36.2-10-31.4-.2-51.8,20.5-55.8,24.6-4.5,5-10.7,13.3-14.6,24.9-1.6,4.9-3.4,9.7-3.9,19.6-.8,14.5-3.4,31-3.4,31-2.9,13.9-7.9,23.4-12,29.5-2.8,4.2-4.2,5.3-6.7,9.9-3.3,6-10.8,18-6.7,27.2,2.8,6.2,8.6,11.9,19.3,15.3,17.5,5.5,33,8.8,49.4,8.4,7-.2,23.7-1.3,40.8-8.4,49.4-20.5,80.2-82.8,69.1-120.9-3.3-11.5-10.2-22.3-10.2-22.3-9.7-15.2-21.8-24.1-29.1-28.6Z"/>
</svg>