<?xml version="1.0" encoding="UTF-8"?>
<svg id="peartotal" xmlns="http://www.w3.org/2000/svg" version="1.1" viewBox="0 0 1024 768">
  <!-- Generator: Adobe Illustrator 29.2.1, SVG Export Plug-In . SVG Version: 2.1.0 Build 116)  -->
  <defs>
    <style>
      .pear-st0 {
        fill: #963;
      }

      .pear-st1 {
        fill: #5e980c;
      }

      .pear-st2 {
        fill: #a7b417;
      }
    </style>
  </defs>
  <path id="pearstem" class="pear-st0" d="M499,270.1s9,2.1,13-3.4c-1.3-7-1.5-12.9-1.4-17,.3-10.5.4-15.7,4.1-19.4,2.4-2.5,5.5-3.4,8.4-7.9,1.2-1.9,1.9-3.6,2.2-4.8,0-1.9,0-4.9-2-6.2-3.4-2.3-10,2.3-12.3,4-17.5,12.4-12,54.8-12,54.8Z"/>
  <path id="pear" class="pear-st2" d="M503.4,267.2s-26.8-6.5-39.5,0c-12.7,6.5-19.5,20.8-22.5,42.6-3,21.8-8.9,41.5-14.5,51-5.6,9.5-29.2,51.6-31.6,58.3-2.4,6.7-16.8,62.2,8.9,91.4,24.4,27.8,53.1,39.6,62.4,42.1,24.9,6.6,46.1,3.1,56.9.5,20.8-6.1,35.9-15.1,45.3-21.7,11.3-7.9,23-16.1,31.9-31.4,10.8-18.6,11.4-37.4,10.8-47.8-.3-5.3-1.3-13.1-3.3-22.4-2.7-12.6-7.4-28-15.8-39.2-16.7-22.5-25.2-42.2-26.9-56.8s-2.4-50.4-11.9-61.6c-9.5-11.2-42.4-9.9-50.2-5Z"/>
  <path id="pearleave" class="pear-st1" d="M503.4,266.7s-4.5-47.2,66.9-29.5c0,0-17.1,36.9-66.9,29.5Z"/>
</svg>